<?xml version="1.0" encoding="UTF-8"?>
<!DOCTYPE svg PUBLIC "-//W3C//DTD SVG 1.1//EN" "http://www.w3.org/Graphics/SVG/1.1/DTD/svg11.dtd">
<!-- Creator: CorelDRAW 2021 (64-Bit) -->
<svg xmlns="http://www.w3.org/2000/svg" xml:space="preserve" width="210mm" height="297mm" version="1.1" style="shape-rendering:geometricPrecision; text-rendering:geometricPrecision; image-rendering:optimizeQuality; fill-rule:evenodd; clip-rule:evenodd"
viewBox="0 0 21000 29700"
 xmlns:xlink="http://www.w3.org/1999/xlink"
 xmlns:xodm="http://www.corel.com/coreldraw/odm/2003">
 <defs>
  <style type="text/css">
   <![CDATA[
    .fil0 {fill:black}
   ]]>
  </style>
 </defs>
 <g id="Layer_x0020_1">
  <metadata id="CorelCorpID_0Corel-Layer"/>
  <g id="_2211371001792">
   <path class="fil0" d="M-3429.47 5442.87c-1153.33,-278.78 -2314.57,428.79 -2593.12,1580.09 0,0 -0.06,0.25 -0.06,0.25 -0.04,0.14 -0.1,0.4 -0.1,0.4 -278.55,1151.29 430.8,2311.44 1584.12,2590.75 -0.03,0 0.22,0.06 0.22,0.06 1153.62,279.11 2315.12,-428.4 2593.73,-1579.95 0,0 0.06,-0.25 0.06,-0.25 0.04,-0.15 0.1,-0.4 0.1,-0.4 278.61,-1151.54 -431,-2311.76 -1584.62,-2590.87 0,0 -0.25,-0.07 -0.25,-0.07l-0.08 -0.01z"/>
   <path class="fil0" d="M-3429.47 -2557.13c-1153.33,-278.78 -2314.57,428.79 -2593.12,1580.09 0,0 -0.06,0.25 -0.06,0.25 -0.04,0.14 -0.1,0.4 -0.1,0.4 -278.55,1151.29 430.8,2311.44 1584.12,2590.75 -0.03,0 0.22,0.06 0.22,0.06 1153.62,279.11 2315.12,-428.4 2593.73,-1579.95 0,0 0.06,-0.25 0.06,-0.25 0.04,-0.15 0.1,-0.4 0.1,-0.4 278.61,-1151.54 -431,-2311.76 -1584.62,-2590.87 0,0 -0.25,-0.07 -0.25,-0.07l-0.08 -0.01z"/>
   <path class="fil0" d="M-3429.47 -10557.13c-1153.33,-278.78 -2314.57,428.79 -2593.12,1580.09 0,0 -0.06,0.25 -0.06,0.25 -0.04,0.14 -0.1,0.4 -0.1,0.4 -278.55,1151.29 430.8,2311.44 1584.12,2590.75 -0.03,0 0.22,0.06 0.22,0.06 1153.62,279.11 2315.12,-428.4 2593.73,-1579.95 0,0 0.06,-0.25 0.06,-0.25 0.04,-0.15 0.1,-0.4 0.1,-0.4 278.61,-1151.54 -431,-2311.76 -1584.62,-2590.87 0,0 -0.25,-0.07 -0.25,-0.07l-0.08 -0.01z"/>
  </g>
 </g>
</svg>
